<?xml version="1.0" encoding="UTF-8" standalone="no"?>
<svg
   xmlns:sketch="http://www.bohemiancoding.com/sketch/ns"
   xmlns:dc="http://purl.org/dc/elements/1.1/"
   xmlns:cc="http://creativecommons.org/ns#"
   xmlns:rdf="http://www.w3.org/1999/02/22-rdf-syntax-ns#"
   xmlns:svg="http://www.w3.org/2000/svg"
   xmlns="http://www.w3.org/2000/svg"
   xmlns:sodipodi="http://sodipodi.sourceforge.net/DTD/sodipodi-0.dtd"
   xmlns:inkscape="http://www.inkscape.org/namespaces/inkscape"
   width="1480"
   height="500"
   viewBox="0 0 1480 500"
   id="svg2"
   version="1.1"
   inkscape:version="0.48.5 r10040"
   sodipodi:docname="button_appstore_apple.svg">
  <metadata
     id="metadata24">
    <rdf:RDF>
      <cc:Work
         rdf:about="">
        <dc:format>image/svg+xml</dc:format>
        <dc:type
           rdf:resource="http://purl.org/dc/dcmitype/StillImage" />
      </cc:Work>
    </rdf:RDF>
  </metadata>
  <defs
     id="defs22" />
  <sodipodi:namedview
     pagecolor="#ffffff"
     bordercolor="#666666"
     borderopacity="1"
     objecttolerance="10"
     gridtolerance="10"
     guidetolerance="10"
     inkscape:pageopacity="0"
     inkscape:pageshadow="2"
     inkscape:window-width="747"
     inkscape:window-height="480"
     id="namedview20"
     showgrid="false"
     inkscape:zoom="0.20135135"
     inkscape:cx="740"
     inkscape:cy="250"
     inkscape:window-x="0"
     inkscape:window-y="0"
     inkscape:window-maximized="0"
     inkscape:current-layer="svg2" />
  <title
     id="title4">button_appstore_apple</title>
  <desc
     id="desc6">Created with Sketch.</desc>
  <rect
     style="fill:none;stroke:#000000;stroke-width:4;stroke-opacity:0.20000000000000001"
     id="rect10"
     rx="60"
     height="500"
     width="1480"
     y="0"
     x="0"
     sketch:type="MSShapeGroup" />
  <path
     style="fill:#ffffff;fill-opacity:1"
     inkscape:connector-curvature="0"
     id="path12"
     sketch:type="MSShapeGroup"
     d="m 271.377,242.554 c -0.322,-35.765 29.285,-53.165 30.639,-53.975 -16.767,-24.447 -42.756,-27.787 -51.889,-28.053 -21.828,-2.297 -43.001,13.061 -54.12,13.061 -11.341,0 -28.464,-12.839 -46.918,-12.462 -23.747,0.366 -45.963,14.115 -58.148,35.466 -25.146,43.533 -6.392,107.507 17.7,142.695 12.051,17.245 26.133,36.476 44.565,35.799 18.032,-0.732 24.768,-11.496 46.529,-11.496 21.561,0 27.887,11.496 46.685,11.053 19.353,-0.289 31.537,-17.3 43.167,-34.7 13.927,-19.73 19.519,-39.205 19.741,-40.204 -0.444,-0.144 -37.574,-14.315 -37.951,-57.182 z m -35.51,-105.177 c 9.699,-12.129 16.335,-28.63 14.493,-45.375 -14.038,0.621 -31.593,9.71 -41.702,21.572 -8.944,10.453 -16.934,27.587 -14.87,43.7 15.769,1.176 31.959,-7.956 42.08,-19.897 z" />
  <g
     style="fill:#ffffff;fill-opacity:1"
     id="g14"
     sketch:type="MSShapeGroup"
     transform="translate(-1,-580)">
    <path
       inkscape:connector-curvature="0"
       id="path16"
       d="M 546.787,957.799 H 521.159 L 507.12,913.61 h -48.796 l -13.373,44.189 H 420 l 48.356,-150.438 h 29.86 l 48.571,150.438 z M 502.888,895.071 490.192,855.8 c -1.343,-4.024 -3.871,-13.475 -7.572,-28.351 h -0.451 c -1.49,6.398 -3.871,15.849 -7.132,28.351 l -12.481,39.271 h 40.333 z m 168.011,7.156 c 0,18.449 -4.999,33.031 -15.009,43.736 -8.96,9.53 -20.099,14.289 -33.381,14.289 -14.343,0 -24.658,-5.121 -30.921,-15.397 v 56.917 h -24.06 V 884.976 c 0,-11.587 -0.305,-23.468 -0.892,-35.654 h 21.159 l 1.343,17.205 h 0.451 c 8.024,-12.966 20.2,-19.443 36.541,-19.443 12.775,0 23.439,5.053 31.97,15.17 8.52,10.14 12.797,23.457 12.797,39.972 z m -24.511,0.882 c 0,-10.558 -2.37,-19.263 -7.132,-26.113 -5.202,-7.133 -12.188,-10.717 -20.945,-10.717 -5.936,0 -11.33,1.99 -16.149,5.923 -4.83,3.945 -7.99,9.111 -9.468,15.521 -0.745,2.973 -1.117,5.403 -1.117,7.325 v 18.11 c 0,7.868 2.415,14.526 7.245,19.975 4.83,5.426 11.104,8.15 18.823,8.15 9.062,0 16.115,-3.516 21.159,-10.49 5.056,-6.997 7.584,-16.222 7.584,-27.684 z m 149.064,-0.882 c 0,18.449 -4.999,33.031 -15.009,43.736 -8.972,9.53 -20.099,14.289 -33.392,14.289 -14.332,0 -24.646,-5.121 -30.921,-15.397 v 56.917 H 692.07 V 884.976 c 0,-11.587 -0.305,-23.468 -0.892,-35.654 h 21.159 l 1.343,17.205 h 0.451 c 8.012,-12.966 20.189,-19.443 36.541,-19.443 12.763,0 23.439,5.053 31.982,15.17 8.509,10.14 12.797,23.457 12.797,39.972 z m -24.522,0.882 c 0,-10.558 -2.381,-19.263 -7.143,-26.113 -5.191,-7.133 -12.165,-10.717 -20.922,-10.717 -5.936,0 -11.33,1.99 -16.171,5.923 -4.819,3.945 -7.978,9.111 -9.457,15.521 -0.734,2.973 -1.129,5.403 -1.129,7.325 v 18.11 c 0,7.868 2.426,14.526 7.234,19.975 4.83,5.415 11.104,8.15 18.846,8.15 9.073,0 16.126,-3.516 21.159,-10.49 5.056,-6.997 7.584,-16.222 7.584,-27.684 z m 163.779,12.503 c 0,12.797 -4.458,23.208 -13.35,31.245 -9.773,8.772 -23.416,13.17 -40.908,13.17 -16.16,0 -29.115,-3.12 -38.888,-9.371 l 5.564,-20.088 c 10.551,6.251 22.141,9.383 34.758,9.383 9.073,0 16.126,-2.057 21.159,-6.138 5.056,-4.103 7.595,-9.563 7.595,-16.391 0,-6.116 -2.099,-11.248 -6.252,-15.419 -4.164,-4.149 -11.048,-8.037 -20.708,-11.587 -26.294,-9.823 -39.452,-24.203 -39.452,-43.092 0,-12.344 4.649,-22.45 13.914,-30.352 9.276,-7.89 21.577,-11.836 36.879,-11.836 13.666,0 25.053,2.385 34.092,7.144 l -6.037,19.647 c -8.509,-4.612 -18.112,-6.918 -28.856,-6.918 -8.486,0 -15.156,2.091 -19.907,6.251 -4.006,3.719 -6.049,8.252 -6.049,13.633 0,5.935 2.313,10.863 6.929,14.718 3.995,3.572 11.285,7.45 21.825,11.61 12.933,5.223 22.423,11.304 28.517,18.29 6.128,6.986 9.175,15.702 9.175,26.102 z m 79.751,-48.202 h -26.52 v 52.667 c 0,13.396 4.672,20.077 14.039,20.077 4.3,0 7.866,-0.362 10.687,-1.119 l 0.666,18.302 c -4.74,1.775 -10.98,2.668 -18.699,2.668 -9.513,0 -16.928,-2.917 -22.299,-8.716 -5.349,-5.81 -8.024,-15.543 -8.024,-29.244 v -54.679 h -15.788 v -18.087 h 15.788 v -19.862 l 23.631,-7.144 v 27.006 h 26.52 v 18.132 z m 119.418,35.258 c 0,16.674 -4.751,30.363 -14.264,41.069 -9.942,11.01 -23.168,16.516 -39.656,16.516 -15.912,0 -28.562,-5.279 -37.997,-15.837 -9.434,-10.558 -14.151,-23.875 -14.151,-39.938 0,-16.81 4.886,-30.578 14.592,-41.283 9.728,-10.705 22.841,-16.075 39.328,-16.075 15.901,0 28.653,5.302 38.324,15.849 9.231,10.253 13.824,23.468 13.824,39.701 z m -24.94,0.554 c 0,-9.937 -2.144,-18.46 -6.444,-25.593 -5.044,-8.614 -12.278,-12.91 -21.622,-12.91 -9.626,0 -17.04,4.296 -22.062,12.91 -4.322,7.133 -6.455,15.803 -6.455,26.045 0,9.948 2.133,18.494 6.455,25.593 5.202,8.625 12.459,12.932 21.87,12.932 9.186,0 16.397,-4.409 21.622,-13.136 4.412,-7.303 6.636,-15.883 6.636,-25.842 z m 103.179,-32.703 c -2.381,-0.441 -4.932,-0.656 -7.584,-0.656 -8.464,0 -15.009,3.177 -19.613,9.597 -4.006,5.652 -6.004,12.797 -6.004,21.422 v 56.917 h -24.06 v -74.315 c 0,-12.491 -0.237,-23.897 -0.7,-34.15 h 20.956 l 0.88,20.755 h 0.666 c 2.55,-7.133 6.545,-12.887 12.03,-17.183 5.372,-3.889 11.15,-5.822 17.39,-5.822 2.223,0 4.232,0.17 6.015,0.441 l 0.023,22.993 z m 107.603,27.91 c 0,4.318 -0.282,7.958 -0.88,10.931 h -72.168 c 0.26,10.717 3.769,18.923 10.461,24.576 6.083,5.042 13.96,7.574 23.608,7.574 10.687,0 20.437,-1.696 29.206,-5.132 l 3.769,16.73 c -10.247,4.465 -22.356,6.703 -36.304,6.703 -16.792,0 -29.973,-4.951 -39.565,-14.831 -9.558,-9.891 -14.366,-23.197 -14.366,-39.836 0,-16.346 4.446,-29.968 13.384,-40.831 9.344,-11.598 21.972,-17.397 37.861,-17.397 15.607,0 27.423,5.799 35.435,17.397 6.365,9.19 9.558,20.585 9.558,34.116 z m -22.942,-6.251 c 0.169,-7.156 -1.411,-13.305 -4.672,-18.528 -4.164,-6.715 -10.574,-10.061 -19.162,-10.061 -7.877,0 -14.276,3.267 -19.151,9.823 -4.006,5.211 -6.387,11.485 -7.121,18.743 l 50.105,0.023 z"
       style="fill:#ffffff;fill-opacity:1" />
    <path
       inkscape:connector-curvature="0"
       id="path18"
       d="m 482.327,753.518 h -12.605 l -6.895,-21.716 h -23.981 l -6.579,21.716 H 420 l 23.766,-73.942 h 14.671 l 23.89,73.942 z m -21.577,-30.827 -6.241,-19.308 c -0.655,-1.978 -1.862,-6.579 -3.724,-13.927 h -0.226 c -0.767,3.177 -1.862,7.789 -3.51,13.927 l -6.128,19.308 h 19.828 z m 81.004,-22.484 -20.155,53.311 H 510.1 l -19.5,-53.311 h 12.707 l 9.096,28.193 c 1.535,4.714 2.844,9.213 3.826,13.486 h 0.327 c 0.88,-3.832 2.189,-8.331 3.826,-13.486 l 8.983,-28.193 h 12.391 z m 42.906,53.311 -0.88,-6.138 h -0.327 c -3.611,4.94 -8.87,7.348 -15.551,7.348 -9.525,0 -16.318,-6.692 -16.318,-15.69 0,-13.158 11.387,-19.963 31.101,-19.963 v -0.983 c 0,-7.02 -3.724,-10.536 -11.059,-10.536 -5.259,0 -9.863,1.323 -13.903,3.957 l -2.404,-7.789 c 4.932,-3.075 11.059,-4.612 18.293,-4.612 13.903,0 20.922,7.348 20.922,22.055 v 19.636 c 0,5.381 0.226,9.552 0.767,12.729 l -10.642,-0.011 z m -1.648,-26.554 c -13.147,0 -19.715,3.188 -19.715,10.75 0,5.596 3.397,8.331 8.103,8.331 6.026,0 11.612,-4.601 11.612,-10.852 v -8.23 z m 37.861,-35.541 c -3.938,0 -7.008,-3.075 -7.008,-7.133 0,-4.058 3.171,-7.02 7.234,-7.02 4.051,0 7.335,2.962 7.222,7.02 0,4.284 -3.058,7.133 -7.448,7.133 z m -5.688,8.783 h 11.827 v 53.311 h -11.827 v -53.311 z m 32.839,-24.463 h 11.827 v 77.774 h -11.827 v -77.774 z m 62.09,77.774 -0.892,-6.138 h -0.316 c -3.611,4.94 -8.87,7.348 -15.551,7.348 -9.525,0 -16.318,-6.692 -16.318,-15.69 0,-13.158 11.387,-19.963 31.101,-19.963 v -0.983 c 0,-7.02 -3.724,-10.536 -11.059,-10.536 -5.259,0 -9.863,1.323 -13.903,3.957 l -2.415,-7.8 c 4.932,-3.075 11.059,-4.612 18.293,-4.612 13.903,0 20.934,7.348 20.934,22.055 v 19.636 c 0,5.381 0.226,9.552 0.745,12.729 h -10.619 z m -1.648,-26.554 c -13.147,0 -19.715,3.188 -19.715,10.75 0,5.596 3.397,8.331 8.103,8.331 6.026,0 11.612,-4.601 11.612,-10.852 v -8.23 z m 59.427,27.763 c -7.55,0 -13.124,-3.188 -16.747,-9.439 h -0.226 l -0.677,8.23 h -10.066 c 0.316,-4.273 0.429,-9.111 0.429,-14.368 v -63.406 h 11.849 v 32.263 h 0.214 c 3.51,-5.923 9.197,-8.885 16.973,-8.885 12.82,0 21.803,10.977 21.803,26.983 0,16.55 -9.976,28.623 -23.552,28.623 z m -2.404,-46.303 c -6.805,0 -13.034,5.923 -13.034,14.153 v 9.326 c 0,7.348 5.597,13.384 12.82,13.384 8.859,0 14.14,-7.235 14.14,-18.754 -0.011,-10.75 -5.496,-18.11 -13.926,-18.11 z m 43.459,-32.681 h 11.815 v 77.774 h -11.815 v -77.774 z m 76.185,53.967 H 849.63 c 0.237,10.095 6.895,15.792 16.747,15.792 5.27,0 10.089,-0.882 14.355,-2.521 l 1.839,8.23 c -5.033,2.193 -10.946,3.29 -17.842,3.29 -16.657,0 -26.508,-10.536 -26.508,-26.87 0,-16.346 10.089,-28.634 25.188,-28.634 13.565,0 22.13,10.095 22.13,25.344 0.034,2.08 -0.068,3.945 -0.406,5.37 z m -10.834,-8.444 c 0,-8.23 -4.175,-14.04 -11.736,-14.04 -6.794,0 -12.143,5.923 -12.933,14.04 h 24.669 z m 82.516,33.461 c -15.551,0 -25.628,-11.632 -25.628,-27.424 0,-16.459 10.292,-28.193 26.52,-28.193 15.314,0 25.628,11.078 25.628,27.323 0,16.663 -10.63,28.295 -26.52,28.295 z m 0.451,-46.958 c -8.543,0 -14.016,8.003 -14.016,19.195 0,10.977 5.586,18.98 13.903,18.98 8.317,0 13.903,-8.557 13.903,-19.206 0,-10.852 -5.473,-18.969 -13.79,-18.969 z m 89.648,45.749 h -11.804 v -30.612 c 0,-9.428 -3.622,-14.153 -10.743,-14.153 -7.008,0 -11.838,6.037 -11.838,13.057 v 31.709 h -11.804 v -38.073 c 0,-4.714 -0.135,-9.767 -0.451,-15.25 h 10.405 l 0.553,8.23 h 0.339 c 3.149,-5.697 9.626,-9.326 16.86,-9.326 11.15,0 18.485,8.557 18.485,22.484 v 31.935 z m 77.381,-44.426 h -13.012 v 25.887 c 0,6.59 2.291,9.88 6.884,9.88 2.076,0 3.848,-0.226 5.259,-0.554 l 0.327,8.998 c -2.302,0.882 -5.383,1.323 -9.186,1.323 -9.333,0 -14.885,-5.155 -14.885,-18.652 v -26.882 h -7.753 v -8.885 h 7.753 v -9.767 l 11.601,-3.516 v 13.271 h 13.012 v 8.897 z m 62.632,44.426 h -11.838 v -30.386 c 0,-9.541 -3.622,-14.368 -10.732,-14.368 -6.128,0 -11.815,4.171 -11.815,12.616 v 32.138 h -11.838 v -77.774 h 11.838 v 32.025 h 0.226 c 3.713,-5.81 9.096,-8.67 15.991,-8.67 11.274,0 18.169,8.772 18.169,22.71 v 31.709 z m 60.431,-23.807 h -35.491 c 0.226,10.095 6.884,15.792 16.747,15.792 5.281,0 10.089,-0.882 14.332,-2.521 l 1.851,8.23 c -5.022,2.193 -10.946,3.29 -17.853,3.29 -16.645,0 -26.497,-10.536 -26.497,-26.87 0,-16.346 10.078,-28.634 25.177,-28.634 13.576,0 22.13,10.095 22.13,25.344 0.045,2.08 -0.068,3.945 -0.395,5.37 z m -10.845,-8.444 c 0,-8.23 -4.153,-14.04 -11.714,-14.04 -6.794,0 -12.154,5.923 -12.933,14.04 h 24.646 z"
       style="fill:#ffffff;fill-opacity:1" />
  </g>
</svg>
