<?xml version="1.0" encoding="UTF-8" standalone="no"?>
<svg
   xmlns:sketch="http://www.bohemiancoding.com/sketch/ns"
   xmlns:dc="http://purl.org/dc/elements/1.1/"
   xmlns:cc="http://creativecommons.org/ns#"
   xmlns:rdf="http://www.w3.org/1999/02/22-rdf-syntax-ns#"
   xmlns:svg="http://www.w3.org/2000/svg"
   xmlns="http://www.w3.org/2000/svg"
   xmlns:sodipodi="http://sodipodi.sourceforge.net/DTD/sodipodi-0.dtd"
   xmlns:inkscape="http://www.inkscape.org/namespaces/inkscape"
   width="1480"
   height="500"
   viewBox="0 0 1480 500"
   id="svg2"
   version="1.1"
   inkscape:version="0.48.5 r10040"
   sodipodi:docname="button_appstore_android.svg">
  <metadata
     id="metadata22">
    <rdf:RDF>
      <cc:Work
         rdf:about="">
        <dc:format>image/svg+xml</dc:format>
        <dc:type
           rdf:resource="http://purl.org/dc/dcmitype/StillImage" />
        <dc:title>button_appstore_android</dc:title>
      </cc:Work>
    </rdf:RDF>
  </metadata>
  <defs
     id="defs20" />
  <sodipodi:namedview
     pagecolor="#ffffff"
     bordercolor="#666666"
     borderopacity="1"
     objecttolerance="10"
     gridtolerance="10"
     guidetolerance="10"
     inkscape:pageopacity="0"
     inkscape:pageshadow="2"
     inkscape:window-width="1125"
     inkscape:window-height="700"
     id="namedview18"
     showgrid="false"
     inkscape:zoom="0.28475381"
     inkscape:cx="407.88332"
     inkscape:cy="243.69002"
     inkscape:window-x="0"
     inkscape:window-y="0"
     inkscape:window-maximized="0"
     inkscape:current-layer="svg2" />
  <title
     id="title4">button_appstore_android</title>
  <desc
     id="desc6">Created with Sketch.</desc>
  <rect
     style="fill:none;stroke:#000000;stroke-width:4;stroke-opacity:0.20000000000000001"
     y="0"
     x="0"
     id="rect10"
     rx="60"
     height="500"
     width="1480"
     sketch:type="MSShapeGroup" />
  <path
     style="fill:#ffffff;fill-opacity:1"
     inkscape:connector-curvature="0"
     id="path12"
     sketch:type="MSShapeGroup"
     d="M 80.154,174.042 C 80.053,174.608 80,175.219 80,175.873 v 243.512 c 0,2.846 1.282,4.809 3.299,5.526 L 213,301.303 80.155,174.042 z m 4.787,-5.204 c 2.052,-0.428 4.533,0.031 7.019,1.407 5.985,3.317 107.89,59.777 107.89,59.777 L 255.466,260.829 218.121,296.42 84.94,168.838 z m 163.912,166.812 -27.57,15.267 -21.433,11.869 c 0,0 -73.147,40.532 -100.457,55.664 l 118.573,-112.389 30.888,29.589 z m 6.476,-3.586 0.448,-0.248 c 0,0 47.452,-26.298 53.766,-29.784 6.304,-3.496 5.696,-8.288 0.378,-11.047 -4.154,-2.143 -34.741,-19.169 -48.02,-26.569 l -38.799,36.776 32.227,30.872 z" />
  <g
     style="fill:#ffffff;fill-opacity:1"
     id="g14"
     sketch:type="MSShapeGroup">
    <path
       inkscape:connector-curvature="0"
       id="path16"
       d="m 1028.713,345.192 -10.142,9.627 c -2.344,1.296 -4.675,2.8 -7,3.869 -7.044,3.218 -14.208,4.027 -20.574,4.027 -6.774,0 -17.394,-0.442 -28.227,-8.325 -15.05,-10.664 -21.629,-28.996 -21.629,-44.97 0,-33.073 26.763,-49.293 48.594,-49.293 7.629,0 15.465,1.922 21.837,5.974 10.595,7.048 13.335,16.208 14.855,21.113 l -49.85,20.26 -16.326,1.277 c 5.285,27.118 23.521,42.89 43.673,42.89 10.067,0 17.538,-3.306 24.394,-6.713 0,0 1.376,-0.721 0.396,0.265 z m -30.459,-54.401 c 4.001,-1.489 6.082,-2.775 6.082,-5.766 0,-8.578 -9.474,-18.487 -20.781,-18.487 -8.374,0 -24.098,6.682 -24.098,29.885 0,3.621 0.422,7.477 0.634,11.334 l 38.163,-16.966 z m -73.576,53.241 c 0,8.267 1.466,9.553 8.412,10.203 3.62,0.429 7.228,0.618 10.798,1.047 l -7.817,4.685 h -37.248 c 4.885,-6.382 5.725,-7.018 5.725,-11.269 v -4.748 l -0.081,-126.521 h -16.448 l 15.834,-7.681 h 30.227 c -6.551,3.821 -8.512,6.148 -9.351,13.595 l -0.05,120.688 z m -57.79,-73.465 c 4.846,4.016 14.957,12.541 14.957,28.707 0,15.756 -8.811,23.183 -17.696,30.213 -2.726,2.768 -5.915,5.769 -5.915,10.41 0,4.71 3.189,7.263 5.484,9.167 l 7.623,5.933 c 9.267,7.888 17.715,15.119 17.715,29.81 0,20.012 -19.21,40.194 -55.509,40.194 -30.578,0 -45.36,-14.684 -45.36,-30.428 0,-7.661 3.783,-18.511 16.264,-25.945 13.081,-8.064 30.803,-9.142 40.295,-9.773 -2.964,-3.859 -6.347,-7.9 -6.347,-14.495 0,-3.606 1.076,-5.756 2.114,-8.291 -2.307,0.221 -4.634,0.448 -6.747,0.448 -22.38,0 -35.03,-16.834 -35.03,-33.423 0,-9.785 4.427,-20.642 13.519,-28.511 12.031,-9.987 26.376,-11.708 37.775,-11.708 h 43.484 l -13.519,7.692 h -13.106 z m -14.846,94.211 c -1.746,-0.231 -2.793,-0.231 -4.898,-0.231 -1.929,0 -13.421,0.424 -22.321,3.466 -4.709,1.752 -18.319,6.932 -18.319,22.318 0,15.354 14.694,26.426 37.425,26.426 20.424,0 31.266,-9.968 31.266,-23.39 0,-11.047 -7.016,-16.875 -23.154,-28.589 z m 5.967,-40.978 c 4.857,-4.896 5.28,-11.66 5.28,-15.5 0,-15.255 -9.009,-39.014 -26.474,-39.014 -5.448,0 -11.351,2.759 -14.7,7.027 -3.555,4.419 -4.62,10.151 -4.62,15.663 0,14.205 8.206,37.763 26.256,37.763 5.267,0 10.933,-2.583 14.258,-5.94 z m -122.636,38.915 c -33.613,0 -51.598,-26.518 -51.598,-50.529 0,-28.055 22.609,-52.059 54.769,-52.059 31.088,0 50.558,24.658 50.558,50.548 0,25.287 -19.244,52.04 -53.729,52.04 z m 26.287,-17.343 c 5.131,-6.876 6.376,-15.458 6.376,-23.824 0,-18.922 -8.904,-55.009 -35.219,-55.009 -6.999,0 -14.047,2.77 -19.128,7.29 -8.288,7.519 -9.765,16.967 -9.765,26.237 0,21.227 10.363,56.237 36.08,56.237 8.3,0 16.77,-4.068 21.656,-10.932 z m -138.945,17.343 c -33.634,0 -51.595,-26.518 -51.595,-50.529 0,-28.055 22.625,-52.059 54.786,-52.059 31.082,0 50.541,24.658 50.541,50.548 0,25.287 -19.227,52.04 -53.732,52.04 z m 26.3,-17.343 c 5.096,-6.876 6.367,-15.458 6.367,-23.824 0,-18.922 -8.933,-55.009 -35.236,-55.009 -7.027,0 -14.004,2.77 -19.1,7.29 -8.304,7.519 -9.776,16.967 -9.776,26.237 0,21.227 10.412,56.237 36.098,56.237 8.285,0 16.747,-4.068 21.648,-10.932 z m -91.84,11.005 -28.471,6.562 c -11.536,1.831 -21.895,3.44 -32.864,3.44 -54.916,0 -75.842,-40.686 -75.842,-72.529 0,-38.887 29.648,-74.942 80.423,-74.942 10.743,0 21.077,1.59 30.491,4.174 14.922,4.219 21.901,9.419 26.262,12.466 l -16.539,15.811 -6.973,1.571 4.972,-7.975 c -6.734,-6.619 -19.113,-18.838 -42.606,-18.838 -31.41,0 -55.105,24.033 -55.105,59.119 0,37.683 27.055,73.13 70.448,73.13 12.75,0 19.314,-2.578 25.274,-4.985 v -32.305 l -30.064,1.628 15.935,-8.615 h 42.191 l -5.161,4.998 c -1.391,1.191 -1.58,1.596 -1.97,3.193 -0.208,1.824 -0.403,7.627 -0.403,9.666 v 24.432 z m 532.98,-10.204 v 54.097 h -10.718 V 262.613 h 10.718 v 15.678 c 6.982,-10.133 19.741,-18.165 34.559,-18.165 26.579,0 44.48,20.21 44.48,52.203 0,31.779 -17.901,52.41 -44.48,52.41 -13.989,0 -26.522,-7.232 -34.559,-18.567 z m 68.048,-33.018 c 0,-24.367 -12.586,-42.952 -34.903,-42.952 -13.859,0 -27.113,10.991 -32.873,20.576 v 44.529 c 5.76,9.604 19.014,20.996 32.873,20.996 22.317,0 34.903,-18.744 34.903,-43.149 z m 25.645,-88.75 h 10.991 v 138.311 h -10.991 V 224.405 z m 130.48,166.34 c 2.292,1.026 6.204,1.656 8.684,1.656 6.556,0 11.121,-2.688 15.221,-12.182 l 7.818,-17.759 -42.222,-100.5 h 11.956 l 36.219,87.091 35.868,-87.091 h 12.125 L 1348.5,383.55 c -5.344,12.528 -13.752,18.553 -25.299,18.553 -3.466,0 -8.038,-0.617 -10.713,-1.442 l 1.84,-9.915 z m -30.248,-28.166 c -0.72,-3.475 -1.263,-6.538 -1.661,-9.095 -0.328,-2.551 -0.518,-5.158 -0.518,-7.81 -3.694,5.437 -8.929,9.962 -15.617,13.526 -6.694,3.589 -13.053,5.348 -21.774,5.348 -10.502,0 -18.655,-2.589 -24.471,-7.842 -5.797,-5.247 -8.715,-12.355 -8.715,-21.349 0,-8.981 4.225,-16.273 12.649,-21.849 8.424,-5.601 19.311,-8.386 32.788,-8.386 h 25.14 v -12.45 c 0,-7.171 -2.438,-12.81 -7.307,-16.899 -4.888,-4.095 -11.746,-6.165 -20.638,-6.165 -8.127,0 -14.72,1.892 -19.741,5.576 -4.976,3.76 -7.483,8.418 -7.483,14.032 H 1215.7 l -0.227,-0.538 c -0.398,-7.57 3.056,-14.209 10.401,-19.944 7.313,-5.728 16.893,-8.608 28.683,-8.608 11.752,0 21.263,2.836 28.43,8.494 7.161,5.601 10.755,13.697 10.755,24.279 v 49.432 c 0,3.551 0.171,6.981 0.613,10.323 0.455,3.348 1.181,6.69 2.147,9.924 h -12.422 z m -38.273,-7.191 c 9.149,0 15.724,-2.061 22.443,-6.139 6.676,-4.053 11.219,-9.339 13.597,-15.739 v -19.34 h -25.239 c -9.641,0 -17.623,2.15 -23.901,6.489 -6.291,4.326 -9.477,9.562 -9.477,15.65 0,5.745 2.019,10.338 6.032,13.818 4.026,3.518 9.528,5.261 16.544,5.261 z M 420,131.26 c 0,-19.73 15.754,-32.421 35.344,-32.421 13.129,0 21.716,5.829 27.066,12.967 l -9.59,5.172 c -3.634,-4.702 -10,-8.359 -17.476,-8.359 -13.325,0 -23.224,9.392 -23.224,22.642 0,13.055 9.899,22.642 23.224,22.642 6.871,0 12.927,-2.912 15.956,-5.635 v -9.68 h -20.196 v -9.68 h 31.912 v 23.399 c -6.562,6.862 -16.057,11.465 -27.672,11.465 -19.59,0 -35.344,-12.868 -35.344,-32.51 z m 78.292,31.555 V 99.794 h 46.785 v 9.739 h -34.805 v 16.244 h 34.089 v 9.733 h -34.089 v 17.572 h 34.805 v 9.733 h -46.785 z m 78.601,0 v -53.282 h -20.359 v -9.739 h 52.513 v 9.739 h -20.359 v 53.282 h -11.795 z m 74.165,-63.021 h 11.457 v 63.021 H 651.058 V 99.794 z m 44.235,63.021 v -53.282 h -20.365 v -9.739 h 52.513 v 9.739 h -20.353 v 53.282 h -11.795 z m 71.294,-31.508 c 0,-18.73 14.41,-32.468 34.853,-32.468 20.328,0 34.847,13.739 34.847,32.468 0,18.724 -14.518,32.463 -34.847,32.463 -20.443,0 -34.853,-13.739 -34.853,-32.463 z m 57.287,-0.48 c 0,-12.852 -8.829,-22.439 -22.434,-22.439 -13.707,0 -22.441,9.588 -22.441,22.439 0,12.753 8.734,22.439 22.441,22.439 13.605,0 22.434,-9.687 22.434,-22.439 z m 72.633,31.988 -35.07,-45.066 v 45.066 H 849.653 V 99.794 h 12.093 l 34.358,43.655 V 99.794 h 11.791 v 63.021 h -11.388 z"
       style="fill:#ffffff;fill-opacity:1" />
  </g>
</svg>
